<svg id="Layer_1" data-name="Layer 1" xmlns="http://www.w3.org/2000/svg" viewBox="0 0 464.88 225"><defs><style>.cls-1{fill:#fefefe;}.cls-2{fill:#030303;}.cls-3{fill:#73c02e;}.cls-4{fill:#74c030;}.cls-5{fill:#fcfcfc;}.cls-6{fill:#fbfbfb;}.cls-7{fill:#fafcf8;}.cls-8{fill:#090909;}</style></defs><path class="cls-1" d="M12.12,223.5V-1.5H477v225ZM23.52,67.87V216.64H228V67.88H161.19c-2.12-6.83-3.95-13.32-6.14-19.7-4.1-11.91-8.38-23.78-15.93-34.07-7.88-10.76-16.54-11.17-24.29-.6a109.38,109.38,0,0,0-11.67,20.3c-4.89,11-8.87,22.5-13.35,34.06ZM386.23,207.73c0-16.37.49-32.27-.16-48.12-.51-12.56-8.35-20.78-20.75-23.22-15.82-3.1-30.13,1.81-44.22,8.65,2,4.46,3.8,8.63,5.77,13.08a51.69,51.69,0,0,1,5.43-2.29c5.88-1.71,11.72-4.13,17.73-4.71,8.58-.82,13,4.91,11.84,13.78-17.71-8.09-31.43-6-38.73,5.88-6.51,10.62-4.64,25.86,4.1,33.06,5.06,4.16,11,5.23,17.38,5.06,8.19-.23,13.49-5,17.91-12,1,4.16,1.75,7.52,2.52,10.81Zm35.79-.06v-5.52c0-12.34-.09-24.69,0-37,.07-6,4.71-10.05,11-9.93,5.71.1,7.83,2.52,7.88,9.5.08,12.81,0,25.62,0,38.43v4.45H464.9c0-16.55.59-32.89-.22-49.17-.47-9.52-4.49-18.15-14.78-21.5-10.83-3.52-20.4-1.65-27.9,8.14a50.14,50.14,0,0,0-2.13-6c-.52-1-1.67-2.46-2.58-2.49-6.43-.21-12.87-.11-19.37-.11v71.28ZM232.55,136.38c.64,1.64,1,2.89,1.6,4.08,8.3,18,16.71,36,24.93,54.06,6.18,13.58,6.07,13.53,20.95,13.37,2.66,0,3.7-1,4.71-3.24,6.7-14.7,13.55-29.32,20.32-44,3.65-7.9,7.22-15.84,11.06-24.28-7.86,0-15,.31-22.05-.12-4.35-.26-5.7,1.55-6.75,5.35-4.06,14.63-8.46,29.17-13.05,44.83-1-3.07-1.63-5.09-2.22-7.13q-5.71-19.74-11.39-39.47c-.57-2-1.06-3.61-3.88-3.53C248.91,136.52,241,136.38,232.55,136.38Z" transform="translate(-12.12 1.5)"/><path class="cls-2" d="M23.52,67.87H89.81c4.48-11.56,8.46-23,13.35-34.06a109.38,109.38,0,0,1,11.67-20.3c7.75-10.57,16.41-10.16,24.29.6C146.67,24.4,151,36.27,155.05,48.18c2.19,6.38,4,12.87,6.14,19.7H228V216.64H23.52Zm35,75.34.78-.13c6,21.48,12.07,42.95,18.15,64.59,6.53,0,12.71.11,18.87-.11a4.13,4.13,0,0,0,3-2.3c4.42-15.7,8.65-31.45,13-47.18,1.27-4.66,2.63-9.3,4-14l1.08.22v63.12H141v-104H106.5c-6.13,24-12.2,47.82-18.61,73-6.45-25.28-12.55-49.17-18.62-72.93H34.6v104H58.54ZM174.87,178.6l41.84-8.29a39.53,39.53,0,0,0-4.94-22c-9.74-16.9-35.05-15.83-47.13-8.3-20,12.5-20.81,42-4.91,58.5,9.58,9.93,21.9,10.56,34.47,8.75a45,45,0,0,0,21-8.44L209.33,185c-3.28,1.28-6.21,2.66-9.29,3.55a57.4,57.4,0,0,1-9.95,2C181,191.5,176.78,188.24,174.87,178.6ZM95.6,67.71H156c-4.09-11.42-7.54-22.56-12.1-33.23A99.91,99.91,0,0,0,132.3,14.76c-3.57-4.85-7.55-4.89-11.12-.12a120.22,120.22,0,0,0-12.91,21.07C103.5,46,99.88,56.72,95.6,67.71Z" transform="translate(-12.12 1.5)"/><path class="cls-3" d="M386.23,207.73H365.05c-.77-3.29-1.55-6.65-2.52-10.81-4.42,7-9.72,11.75-17.91,12-6.36.17-12.32-.9-17.38-5.06-8.74-7.2-10.61-22.44-4.1-33.06,7.3-11.89,21-14,38.73-5.88C363,156,358.61,150.3,350,151.12c-6,.58-11.85,3-17.73,4.71a51.69,51.69,0,0,0-5.43,2.29c-2-4.45-3.81-8.62-5.77-13.08,14.09-6.84,28.4-11.75,44.22-8.65,12.4,2.44,20.24,10.66,20.75,23.22C386.72,175.46,386.23,191.36,386.23,207.73Zm-33.9-32.48c-4.54,0-7.16,2.84-7.08,7.7.07,4.26,2.68,7,6.82,7,4.32.08,10.62-4.89,10.44-8.23C362.36,178.88,356.66,175.24,352.33,175.25Z" transform="translate(-12.12 1.5)"/><path class="cls-4" d="M422,207.67h-24.1V136.39c6.5,0,12.94-.1,19.37.11.91,0,2.06,1.45,2.58,2.49a50.14,50.14,0,0,1,2.13,6c7.5-9.79,17.07-11.66,27.9-8.14,10.29,3.35,14.31,12,14.78,21.5.81,16.28.22,32.62.22,49.17H441v-4.45c0-12.81.06-25.62,0-38.43-.05-7-2.17-9.4-7.88-9.5-6.33-.12-11,3.89-11,9.93-.12,12.34,0,24.69,0,37Z" transform="translate(-12.12 1.5)"/><path class="cls-3" d="M232.55,136.38c8.48,0,16.36.14,24.23-.07,2.82-.08,3.31,1.58,3.88,3.53q5.68,19.72,11.39,39.47c.59,2,1.26,4.06,2.22,7.13,4.59-15.66,9-30.2,13.05-44.83,1.05-3.8,2.4-5.61,6.75-5.35,7.07.43,14.19.12,22.05.12-3.84,8.44-7.41,16.38-11.06,24.28-6.77,14.67-13.62,29.29-20.32,44-1,2.2-2.05,3.21-4.71,3.24-14.88.16-14.77.21-20.95-13.37-8.22-18.06-16.63-36-24.93-54.06C233.6,139.27,233.19,138,232.55,136.38Z" transform="translate(-12.12 1.5)"/><path class="cls-5" d="M58.54,143.21v64.25H34.6v-104H69.27c6.07,23.76,12.17,47.65,18.62,72.93,6.41-25.14,12.48-48.95,18.61-73H141V207.47H117.37V144.35l-1.08-.22c-1.33,4.65-2.69,9.29-4,14-4.3,15.73-8.53,31.48-13,47.18a4.13,4.13,0,0,1-3,2.3c-6.16.22-12.34.11-18.87.11C71.39,186,65.36,164.56,59.32,143.08Z" transform="translate(-12.12 1.5)"/><path class="cls-6" d="M174.87,178.6c1.91,9.64,6.1,12.9,15.22,12a57.4,57.4,0,0,0,9.95-2c3.08-.89,6-2.27,9.29-3.55l5.91,13.81a45,45,0,0,1-21,8.44c-12.57,1.81-24.89,1.18-34.47-8.75-15.9-16.48-15.13-46,4.91-58.5,12.08-7.53,37.39-8.6,47.13,8.3a39.53,39.53,0,0,1,4.94,22Zm22.77-17.43c-3.36-5.69-8.61-7.73-15.11-6.12-5.14,1.26-7.86,4.73-7.91,10.35Z" transform="translate(-12.12 1.5)"/><path class="cls-5" d="M95.6,67.71c4.28-11,7.9-21.76,12.67-32a120.22,120.22,0,0,1,12.91-21.07c3.57-4.77,7.55-4.73,11.12.12a99.91,99.91,0,0,1,11.57,19.72c4.56,10.67,8,21.81,12.1,33.23Z" transform="translate(-12.12 1.5)"/><path class="cls-7" d="M352.33,175.25c4.33,0,10,3.63,10.18,6.49.18,3.34-6.12,8.31-10.44,8.23-4.14-.07-6.75-2.76-6.82-7C345.17,178.09,347.79,175.25,352.33,175.25Z" transform="translate(-12.12 1.5)"/><path class="cls-8" d="M197.64,161.17l-23,4.23c0-5.62,2.77-9.09,7.91-10.35C189,153.44,194.28,155.48,197.64,161.17Z" transform="translate(-12.12 1.5)"/></svg>