<?xml version="1.0" encoding="utf-8"?>
<!-- Generator: Adobe Illustrator 19.0.0, SVG Export Plug-In . SVG Version: 6.00 Build 0)  -->
<svg version="1.1" xmlns="http://www.w3.org/2000/svg" xmlns:xlink="http://www.w3.org/1999/xlink" x="0px" y="0px"
	 viewBox="0 0 368.6 56.2" style="enable-background:new 0 0 368.6 56.2;" xml:space="preserve">
<style type="text/css">
	.st0{fill:#84CC39;stroke:#84CC39;stroke-miterlimit:10;}
	.st1{fill:#FFFFFF;stroke:#84CC39;stroke-miterlimit:10;}
</style>
<g id="Layer_4_xA0_Image_1_">
	<path class="st0" d="M80.1,53l8.6-10.8L61.1,16.1c0,0-2.6-3.6,0-5.8s6.3,0.5,6.3,0.5l2.5-3.7c0,0-3.2-4.3-8.2-3.2
		c-5.7,1.3-7.4,7-7.4,7s-1.4,4.4,1.6,8.7c2.8,4,1.6,2.6,1.9,2.9L34.4,43.3l8.7,9.5l37.4,0"/>
	<polygon class="st1" points="83.1,43.3 61.3,25.2 41.1,43.7 43.8,47.3 79.5,47.3 	"/>
</g>
<g id="T___NASTYLE">
	<g>
		<path d="M21.6,9.4H6.9V4h35.9v5.3H28v43.2h-6.3V9.4z"/>
		<path d="M94,52.6V4h6.8l15.6,24.6c3.6,5.7,6.4,10.8,8.7,15.8l0.1-0.1c-0.6-6.5-0.7-12.4-0.7-19.9V4h5.9v48.5h-6.3l-15.4-24.6
			c-3.4-5.4-6.6-10.9-9.1-16.2l-0.2,0.1c0.4,6.1,0.5,12,0.5,20v20.7H94z"/>
		<path d="M149.2,37.3l-5,15.3h-6.5L154.2,4h7.6l16.6,48.5h-6.7l-5.2-15.3H149.2z M165.1,32.4l-4.8-14c-1.1-3.2-1.8-6-2.5-8.9h-0.1
			c-0.7,2.9-1.5,5.8-2.4,8.8l-4.8,14H165.1z"/>
		<path d="M184.6,44.9c2.8,1.7,6.9,3.2,11.2,3.2c6.4,0,10.2-3.4,10.2-8.3c0-4.5-2.6-7.1-9.1-9.6c-7.9-2.8-12.8-6.9-12.8-13.8
			c0-7.6,6.3-13.2,15.7-13.2c5,0,8.6,1.2,10.7,2.4l-1.7,5.1c-1.6-0.9-4.8-2.3-9.2-2.3c-6.6,0-9.1,4-9.1,7.3c0,4.5,3,6.8,9.6,9.4
			c8.2,3.2,12.4,7.1,12.4,14.3c0,7.5-5.5,14-17,14c-4.7,0-9.8-1.4-12.4-3.1L184.6,44.9z"/>
		<path d="M230.2,9.4h-14.8V4h35.9v5.3h-14.8v43.2h-6.3V9.4z"/>
		<path d="M269.5,52.6V32L254.2,4h7.1l6.8,13.4c1.9,3.7,3.3,6.6,4.8,10h0.1c1.4-3.2,3-6.3,4.9-10L285,4h7.1l-16.3,27.9v20.7H269.5z"
			/>
		<path d="M297.2,4h6.3v43.3h20.7v5.3h-27V4z"/>
		<path d="M356.3,29.8h-18.9v17.5h21v5.3h-27.3V4h26.2v5.3h-19.9v15.3h18.9V29.8z"/>
	</g>
</g>
</svg>
